<svg width="32" height="32" viewBox="0 0 32 32" fill="none" xmlns="http://www.w3.org/2000/svg">
<path fill-rule="evenodd" clip-rule="evenodd" d="M13.0977 7.41594L20.3143 10.6628C22.5081 11.6498 24.2346 12.4265 25.4058 13.1621C26.5627 13.8886 27.4666 14.75 27.4666 16C27.4666 17.2499 26.5626 18.1113 25.4058 18.8378C24.2346 19.5734 22.5081 20.3501 20.3144 21.3371L13.0977 24.584C11.7569 25.1872 10.7138 25.6565 9.8993 25.9611C9.1023 26.2591 8.38999 26.4549 7.75662 26.386C6.22039 26.2189 4.89847 25.1655 4.57854 23.6782C4.44294 23.0479 4.63254 22.3427 4.90496 21.6102C5.18702 20.8518 5.63532 19.8779 6.20644 18.6373L6.22184 18.6038C6.6682 17.6342 6.83998 17.2516 6.92763 16.8699C7.05948 16.2957 7.05948 15.7042 6.92763 15.13C6.83998 14.7483 6.6682 14.3657 6.22184 13.3961L6.20644 13.3626C5.63532 12.122 5.18702 11.1481 4.90496 10.3897C4.63254 9.65716 4.44294 8.95201 4.57854 8.32167C4.89847 6.83443 6.22039 5.78098 7.75662 5.61392C8.38999 5.54505 9.1023 5.74078 9.8993 6.03882C10.7138 6.34338 11.7569 6.81268 13.0977 7.41594ZM9.33889 7.53746C8.55577 7.24462 8.15571 7.17996 7.92959 7.20455C6.98232 7.30756 6.29822 7.93546 6.14275 8.65816C6.11383 8.79264 6.13403 9.10437 6.40462 9.83198C6.66303 10.5269 7.08542 11.4457 7.67524 12.727C7.68816 12.7551 7.70093 12.7828 7.71356 12.8102C8.1093 13.6696 8.35788 14.2094 8.48705 14.7719C8.67301 15.5818 8.67301 16.4181 8.48705 17.228C8.35788 17.7905 8.1093 18.3303 7.71355 19.1897C7.70093 19.2171 7.68816 19.2448 7.67524 19.2729C7.08542 20.5542 6.66303 21.473 6.40462 22.1679C6.13403 22.8955 6.11383 23.2073 6.14275 23.3417C6.29822 24.0644 6.98232 24.6923 7.92959 24.7954C8.15571 24.8199 8.55577 24.7553 9.33889 24.4624C10.0987 24.1783 11.0944 23.7308 12.4701 23.1118L19.5932 19.9071C21.8655 18.8847 23.4892 18.1522 24.5549 17.4829C25.6464 16.7973 25.8666 16.352 25.8666 16C25.8666 15.6479 25.6464 15.2026 24.5549 14.517C23.4892 13.8478 21.8655 13.1152 19.5932 12.0928L12.4701 8.88807C11.0944 8.2691 10.0987 7.82159 9.33889 7.53746Z" fill="#02040F"/>
</svg>
